<svg xmlns="http://www.w3.org/2000/svg" viewBox="0 0 24 24" fill="none" stroke="#3b82f6" stroke-width="1.5" stroke-linecap="round" stroke-linejoin="round">
  <path d="M12 2C9 2 7 4 7 6.5c0 .5-.5 1-1 1C4.5 7.5 3 9 3 11c0 1.5 1 3 2.5 3.5.5.2.5.5.5 1 0 2 1.5 3.5 3.5 3.5.5 0 1 .5 1 1 0 1 1 2 1.5 2"/>
  <path d="M12 2c3 0 5 2 5 4.5c0 .5.5 1 1 1C19.5 7.5 21 9 21 11c0 1.5-1 3-2.5 3.5-.5.2-.5.5-.5 1 0 2-1.5 3.5-3.5 3.5-.5 0-1 .5-1 1 0 1-1 2-1.5 2"/>
  <path d="M12 2v20"/>
  <path d="M7 10h10"/>
  <path d="M8 14h8"/>
</svg>